# xmcd CD database file
#
# Track frame offsets:
#	150
#	10115
#	37195
#	61390
#
# Disc length: 1127 seconds
#
# Revision: 0
# Processed by: cddbd v1.5PL3 Copyright (c) Steve Scherf et al.
# Submitted via: CDex 1.40Release
#
DISCID=2d046504
DTITLE=NIPPS feat. MURO/DEV LARGE - GALAXY PIMP 3000
DYEAR=2001
DGENRE=ヒップ ホップ (一般)
TTITLE0=PSYCHODELIC P-LINE HIBA EXPRESS #76
TTITLE1=GALAXY PIMP 3000
TTITLE2=A NEW ADVENTURE OF PIMP ORGANIST
TTITLE3=GALAXY PIMP 3000(12INCH REPRISE 1)
EXTD=YEAR: 2001
EXTT0=
EXTT1=
EXTT2=
EXTT3=
PLAYORDER=
